<?xml version="1.0" encoding="UTF-8"?>
<svg width="18px" height="18px" viewBox="0 0 18 18" version="1.1" xmlns="http://www.w3.org/2000/svg" xmlns:xlink="http://www.w3.org/1999/xlink">
    <!-- Generator: Sketch 51.3 (57544) - http://www.bohemiancoding.com/sketch -->
    <title>share</title>
    <desc>Created with Sketch.</desc>
    <defs></defs>
    <g id="UI" stroke="none" stroke-width="1" fill="none" fill-rule="evenodd">
        <g id="UI-TOP-NAV-rollover-&amp;-click-states" transform="translate(-1074.000000, -643.000000)" fill="#9B9B9B">
            <g id="Group-3" transform="translate(1013.000000, 637.000000)">
                <path d="M76.2832104,18.4926365 C75.4200374,18.4926365 74.6584129,18.8750897 74.1760521,19.4870397 L66.4329416,15.6369182 C66.4837267,15.4334663 66.5090652,15.2293726 66.5090652,14.9998344 C66.5090652,14.7957406 66.4837267,14.5665337 66.4329416,14.36244 L74.1507136,10.5126291 C74.6584129,11.1242685 75.4200374,11.5067217 76.2578719,11.5067217 C77.7810777,11.5067217 78.9996164,10.2576671 78.9996164,8.75302959 C78.9996164,7.22361011 77.7556311,6 76.2578719,6 C74.7345364,6 73.5159977,7.24903384 73.5159977,8.75302959 C73.5159977,8.95712334 73.5413362,9.18666151 73.5921213,9.39075526 L65.8743493,13.2405662 C65.3666501,12.6289267 64.6050471,12.246163 63.7672127,12.246163 C62.2439853,12.246163 61,13.4700836 61,14.9998344 C61,16.5295851 62.2439853,17.7531952 63.7418741,17.7531952 C64.6050471,17.7531952 65.3666501,17.3710733 65.8490108,16.758792 L73.5921213,20.6086029 C73.5413362,20.8126967 73.5159977,21.0167904 73.5159977,21.2463286 C73.5159977,22.7760793 74.759983,24 76.2578719,24 C77.7810777,24 78.9996164,22.7503244 78.9996164,21.2463286 C79.0250629,19.7165779 77.7810777,18.4926365 76.2832104,18.4926365 Z" id="share"></path>
            </g>
        </g>
    </g>
</svg>