<?xml version="1.0" encoding="UTF-8"?>
<svg width="18px" height="18px" viewBox="0 0 18 18" version="1.1" xmlns="http://www.w3.org/2000/svg" xmlns:xlink="http://www.w3.org/1999/xlink">
    <!-- Generator: Sketch 51.3 (57544) - http://www.bohemiancoding.com/sketch -->
    <title>share</title>
    <desc>Created with Sketch.</desc>
    <defs></defs>
    <g id="UI" stroke="none" stroke-width="1" fill="none" fill-rule="evenodd">
        <g id="UI-TOP-NAV-rollover-&amp;-click-states" transform="translate(-304.000000, -23.000000)" fill="#4A4A4A">
            <path d="M319.28321,35.4926365 C318.420037,35.4926365 317.658413,35.8750897 317.176052,36.4870397 L309.432942,32.6369182 C309.483727,32.4334663 309.509065,32.2293726 309.509065,31.9998344 C309.509065,31.7957406 309.483727,31.5665337 309.432942,31.36244 L317.150714,27.5126291 C317.658413,28.1242685 318.420037,28.5067217 319.257872,28.5067217 C320.781078,28.5067217 321.999616,27.2576671 321.999616,25.7530296 C321.999616,24.2236101 320.755631,23 319.257872,23 C317.734536,23 316.515998,24.2490338 316.515998,25.7530296 C316.515998,25.9571233 316.541336,26.1866615 316.592121,26.3907553 L308.874349,30.2405662 C308.36665,29.6289267 307.605047,29.246163 306.767213,29.246163 C305.243985,29.246163 304,30.4700836 304,31.9998344 C304,33.5295851 305.243985,34.7531952 306.741874,34.7531952 C307.605047,34.7531952 308.36665,34.3710733 308.849011,33.758792 L316.592121,37.6086029 C316.541336,37.8126967 316.515998,38.0167904 316.515998,38.2463286 C316.515998,39.7760793 317.759983,41 319.257872,41 C320.781078,41 321.999616,39.7503244 321.999616,38.2463286 C322.025063,36.7165779 320.781078,35.4926365 319.28321,35.4926365 Z" id="share"></path>
        </g>
    </g>
</svg>