<?xml version="1.0" encoding="UTF-8"?>
<svg width="20px" height="20px" viewBox="0 0 20 20" version="1.1" xmlns="http://www.w3.org/2000/svg" xmlns:xlink="http://www.w3.org/1999/xlink">
    <!-- Generator: Sketch 51.3 (57544) - http://www.bohemiancoding.com/sketch -->
    <title>share copy 2</title>
    <desc>Created with Sketch.</desc>
    <defs></defs>
    <g id="UI" stroke="none" stroke-width="1" fill="none" fill-rule="evenodd">
        <g id="UI-TOP-NAV-rollover-&amp;-click-states" transform="translate(-931.000000, -233.000000)" stroke="#282828" stroke-width="0.35">
            <path d="M944.391643,248.704364 L936.895005,244.977096 C936.367863,245.578062 935.590477,245.928195 934.741874,245.928195 C933.138603,245.928195 931.825,244.617522 931.825,242.999834 C931.825,241.377924 933.142802,240.071163 934.767213,240.071163 C935.592751,240.071163 936.368329,240.422118 936.917371,241.023542 L944.392143,237.294945 C944.358697,237.118841 944.340998,236.930184 944.340998,236.75303 C944.340998,235.143951 945.646222,233.825 947.257872,233.825 C948.860981,233.825 950.174616,235.13564 950.174616,236.75303 C950.174616,238.362627 948.869515,239.681722 947.257872,239.681722 C946.432213,239.681722 945.656649,239.330944 945.107694,238.729652 L937.632926,242.458247 C937.666375,242.634295 937.684065,242.822743 937.684065,242.999834 C937.684065,243.190223 937.667575,243.366732 937.633477,243.541191 L945.130092,247.268747 C945.657372,246.667894 946.43483,246.317637 947.28321,246.317637 C948.89106,246.317637 950.201465,247.633747 950.174616,249.246329 C950.174616,250.855496 948.869307,252.175 947.257872,252.175 C945.654654,252.175 944.340998,250.864068 944.340998,249.246329 C944.340998,249.05587 944.357498,248.879278 944.391643,248.704364 Z" id="share-copy-2"></path>
        </g>
    </g>
</svg>