<svg xmlns="http://www.w3.org/2000/svg" viewBox="0 0 28.23 28.43"><title>mollusk icon</title><g id="Layer_2" data-name="Layer 2"><g id="Layer_2-2" data-name="Layer 2"><path d="M16.43,28.43c-.34,0-.67,0-1,0A17.12,17.12,0,0,1,3.55,22.66,14,14,0,0,1,4.67,2.9a11.41,11.41,0,0,1,16.12.92A9.35,9.35,0,0,1,20,17a7.71,7.71,0,0,1-10.85-.62,6.39,6.39,0,0,1,.51-9,5.32,5.32,0,0,1,7.49.43,4.46,4.46,0,0,1-.36,6.29,3.78,3.78,0,0,1-5.33-.3A2.55,2.55,0,0,1,11,11.73a3.32,3.32,0,0,1,.84-1.83,1.82,1.82,0,0,1,2.6-.08,1.06,1.06,0,0,1,.11,1.5c-.33.38-1.34.3-1.77.07A1.32,1.32,0,0,0,13,13.05,2.2,2.2,0,0,0,15.73,13a3.15,3.15,0,0,0,.12-3.92A3.5,3.5,0,0,0,11.11,9a4.24,4.24,0,0,0-.34,6,5.56,5.56,0,0,0,7.85.45A7.22,7.22,0,0,0,19.2,5.23,9.29,9.29,0,0,0,6.09,4.48a11.89,11.89,0,0,0-1,16.77,15.13,15.13,0,0,0,21.33,1.22,1.06,1.06,0,1,1,1.42,1.58A17.13,17.13,0,0,1,16.43,28.43Z"/></g></g></svg>