<svg xmlns="http://www.w3.org/2000/svg" viewBox="0 0 26.54 22.33"><title>Asset 4</title><g id="Layer_2" data-name="Layer 2"><g id="Layer_2-2" data-name="Layer 2"><path d="M18.71,8.29a1.17,1.17,0,1,1,1.56.55A1.16,1.16,0,0,1,18.71,8.29ZM16.24,9A1,1,0,0,0,17,7.81c-.24-.89-.34-3.11,1-3.45a6.76,6.76,0,0,1,3.84.49,2.42,2.42,0,0,0,2.94-.91c.78-1,.49-2.22-.18-3.37C24.05-.25,22.79,0,22.67.3c-.34,1,.63.74,1.17,1.42.39.51,0,1.22-.23,1.49s-1,.34-1.36.24l-.57-.17A8.36,8.36,0,0,0,18,2.72a3.67,3.67,0,0,0-2.5,1.67A5,5,0,0,0,15,8.32,1,1,0,0,0,16.24,9Zm1,13.1a3.38,3.38,0,0,0,2.18-2.73.75.75,0,0,0-.63-.85.78.78,0,0,0-.86.63,1.87,1.87,0,0,1-1.2,1.54,1.51,1.51,0,0,1-1.51-.21c-.73-.65-.17-2.09.05-2.66a2.17,2.17,0,0,0-.75-2.68c-.3-.16-1.35-.55-2.4,1a.75.75,0,0,0,1.22.86,1.9,1.9,0,0,1,.47-.49c.07,0,.22.38,0,.9-.74,1.92-.61,3.34.39,4.23a2.81,2.81,0,0,0,1.51.67A3.16,3.16,0,0,0,17.27,22.13ZM8,20.39a1.18,1.18,0,1,0-1.57-.55A1.19,1.19,0,0,0,8,20.39Zm3.78-6.61c-.5,1.22-1.23,1.53-2.14,1.35a1.1,1.1,0,0,1-.44.72,1.06,1.06,0,0,1-.6.18,1.58,1.58,0,0,1-.54-.11,2.33,2.33,0,0,1-1-.86,2.22,2.22,0,0,1-.42-1.48l-1.2-.78C2.59,11-2.67,12.46,1.63,7.45a3.75,3.75,0,0,1,.83-.74A1.88,1.88,0,0,1,3.05,6a1.84,1.84,0,0,1,2.54.46h0A1.83,1.83,0,0,1,5.9,7.69,13.47,13.47,0,0,1,7.18,9.2C9.21,12,13,10.74,11.78,13.78Zm-6.39-6a1.29,1.29,0,0,0-.21-1,1.33,1.33,0,0,0-1.09-.57,1.3,1.3,0,0,0-.75.23,1.32,1.32,0,0,0,.51,2.39A1.32,1.32,0,0,0,5.39,7.75Zm3.77,7.07a1.81,1.81,0,0,0-.35-1,1.58,1.58,0,0,0-1.15-.75.59.59,0,0,0-.32.09c-.37.26-.32,1,.1,1.61a1.86,1.86,0,0,0,.81.68.72.72,0,0,0,.66,0A.69.69,0,0,0,9.16,14.82Zm2.12-7.28a2.34,2.34,0,0,1-2-4.21,2.38,2.38,0,0,1,.76-.2,1.13,1.13,0,0,1,1.39-.66,1,1,0,0,1,.62.58,1.14,1.14,0,0,1,0,.87s0,0,0,0a2.36,2.36,0,0,1,.32.48A2.34,2.34,0,0,1,11.28,7.54Zm.06-4.95a1,1,0,0,0-1.26.65,1,1,0,0,0,.59,1.29,1,1,0,0,0,1.26-.65A1,1,0,0,0,11.34,2.59Zm15,13.81-.45.85c-.32.62-1.14,1.36-1.76,1.07a1.62,1.62,0,0,1-1.29.67,1.73,1.73,0,0,1-.49-.08,1.6,1.6,0,0,1-.93-2.05.36.36,0,0,1,0-.09l-6.36-3.7a1.28,1.28,0,0,1-.55-1.72l.45-.86A1.27,1.27,0,0,1,16.71,10L26,13.71C26.65,14,26.65,15.77,26.33,16.4Zm-9-4.06a.47.47,0,1,0-.2.65A.48.48,0,0,0,17.32,12.34ZM21.63,14a1,1,0,1,0-1.3.59A1,1,0,0,0,21.63,14Zm1.7,2.05a1.38,1.38,0,1,0,.78,1.73A1.34,1.34,0,0,0,23.33,16.07Z"/></g></g></svg>