<svg xmlns="http://www.w3.org/2000/svg" viewBox="0 0 38.97 18.08"><title>fish icon</title><g id="Layer_2" data-name="Layer 2"><g id="Layer_2-2" data-name="Layer 2"><path d="M38.88,3.88c-1.17,0-4.77,3.63-6.36,3.63-2.56,0-6.46-1.79-11.4-2.86.67-1.94.91-4.49.72-4.64S17.2,2.43,14.53,3.88h-.19C6.16,3.88.05,9.67,0,9.82S0,10,0,10s6.57,5.69,14.3,5.69a34.62,34.62,0,0,0,4.95-.39,17.28,17.28,0,0,0,5.58,2.77,17.8,17.8,0,0,0-.66-3.71c4.13-1,7.49-2.08,8.53-2.08,1.37,0,3.93,3.41,6.14,3.41.68,0-2.47-4.5-2.47-5.83C36.41,8.34,39.56,3.88,38.88,3.88Z"/></g></g></svg>